<svg width="30" height="31" viewBox="0 0 30 31" fill="none" xmlns="http://www.w3.org/2000/svg">
<g id="Frame" clip-path="url(#clip0_1_179)">
<path id="Vector" d="M15 28.0996C8.09625 28.0996 2.5 22.5252 2.5 15.6484C2.5 10.0728 6.17875 5.35381 11.25 3.76753V6.41216C9.10116 7.28131 7.32225 8.86716 6.21757 10.8985C5.1129 12.9298 4.7511 15.2803 5.19407 17.5479C5.63703 19.8156 6.85724 21.8595 8.64596 23.33C10.4347 24.8005 12.6808 25.6062 15 25.6094C16.9922 25.6093 18.9391 25.0168 20.5911 23.9076C22.243 22.7984 23.5249 21.2232 24.2725 19.3838H26.9275C25.335 24.4352 20.5975 28.0996 15 28.0996ZM27.4375 16.8936H13.75V3.25952C14.1613 3.21843 14.5787 3.19727 15 3.19727C21.9037 3.19727 27.5 8.77166 27.5 15.6484C27.5 16.068 27.4788 16.4839 27.4375 16.8936ZM16.25 5.7647V14.4033H24.9225C24.6443 12.2089 23.6411 10.1691 22.071 8.6051C20.5008 7.04111 18.453 6.04184 16.25 5.7647Z" fill="#707070"/>
</g>
<defs>
<clipPath id="clip0_1_179">
<rect width="30" height="29.8828" fill="white" transform="translate(0 0.707031)"/>
</clipPath>
</defs>
</svg>
