<svg width="32" height="33" viewBox="0 0 32 33" fill="none" xmlns="http://www.w3.org/2000/svg">
<g id="Frame" clip-path="url(#clip0_1_189)">
<path id="Vector" d="M4.45329 23.0508C3.88965 22.0799 3.45151 21.0419 3.14929 19.9616C3.80704 19.6283 4.35942 19.1204 4.74533 18.4938C5.13124 17.8673 5.33565 17.1467 5.33592 16.4116C5.3362 15.6766 5.13234 14.9558 4.7469 14.329C4.36145 13.7022 3.80945 13.1938 3.15196 12.8601C3.75467 10.6892 4.90226 8.70696 6.48662 7.09999C7.10542 7.50072 7.82345 7.7231 8.56126 7.74251C9.29907 7.76193 10.0279 7.57763 10.6671 7.21001C11.3062 6.84238 11.8308 6.30577 12.1828 5.65956C12.5348 5.01335 12.7004 4.28274 12.6613 3.54859C14.8508 2.98496 17.1483 2.98587 19.3373 3.55124C19.2986 4.28538 19.4645 5.01589 19.8167 5.66191C20.169 6.30794 20.6938 6.8443 21.3331 7.21164C21.9724 7.57898 22.7012 7.76298 23.439 7.74327C24.1768 7.72357 24.8947 7.50093 25.5133 7.09999C26.2853 7.88359 26.9706 8.77476 27.5466 9.76953C28.124 10.7643 28.556 11.8016 28.8506 12.8587C28.1929 13.192 27.6405 13.6999 27.2546 14.3265C26.8687 14.953 26.6643 15.6736 26.664 16.4087C26.6637 17.1437 26.8676 17.8645 27.253 18.4913C27.6385 19.1181 28.1905 19.6265 28.848 19.9602C28.2452 22.1311 27.0977 24.1133 25.5133 25.7203C24.8945 25.3196 24.1765 25.0972 23.4387 25.0778C22.7008 25.0584 21.972 25.2427 21.3329 25.6103C20.6937 25.9779 20.1691 26.5145 19.8171 27.1607C19.4652 27.8069 19.2995 28.5376 19.3386 29.2717C17.1491 29.8353 14.8517 29.8344 12.6626 29.2691C12.7014 28.5349 12.5354 27.8044 12.1832 27.1584C11.831 26.5124 11.3061 25.976 10.6669 25.6087C10.0276 25.2413 9.2987 25.0573 8.56093 25.077C7.82316 25.0967 7.10524 25.3194 6.48662 25.7203C5.69861 24.9194 5.01542 24.0224 4.45329 23.0508ZM12 23.3111C13.4208 24.1274 14.4891 25.4374 15 26.99C15.6653 27.0524 16.3333 27.0537 16.9986 26.9913C17.5098 25.4385 18.5786 24.1285 20 23.3124C21.4202 22.4939 23.094 22.2266 24.7 22.562C25.0866 22.0202 25.42 21.4424 25.6973 20.8381C24.6032 19.6208 23.9988 18.044 24 16.4102C24 14.7367 24.6266 13.1735 25.6973 11.9822C25.418 11.3781 25.0832 10.801 24.6973 10.2583C23.0923 10.5934 21.4197 10.3266 20 9.50921C18.5791 8.69291 17.5108 7.38286 17 5.83031C16.3346 5.76788 15.6666 5.76656 15.0013 5.82898C14.4901 7.38175 13.4213 8.69183 12 9.50788C10.5797 10.3264 8.90593 10.5937 7.29996 10.2583C6.91405 10.8005 6.58013 11.3777 6.30263 11.9822C7.39672 13.1995 8.00114 14.7763 7.99996 16.4102C7.99996 18.0836 7.37329 19.6468 6.30263 20.8381C6.58192 21.4422 6.91668 22.0193 7.30263 22.562C8.90758 22.2269 10.5802 22.4937 12 23.3111ZM16 20.3945C14.9391 20.3945 13.9217 19.9747 13.1715 19.2275C12.4214 18.4803 12 17.4669 12 16.4102C12 15.3534 12.4214 14.34 13.1715 13.5928C13.9217 12.8456 14.9391 12.4258 16 12.4258C17.0608 12.4258 18.0782 12.8456 18.8284 13.5928C19.5785 14.34 20 15.3534 20 16.4102C20 17.4669 19.5785 18.4803 18.8284 19.2275C18.0782 19.9747 17.0608 20.3945 16 20.3945ZM16 17.7383C16.3536 17.7383 16.6927 17.5983 16.9428 17.3493C17.1928 17.1002 17.3333 16.7624 17.3333 16.4102C17.3333 16.0579 17.1928 15.7201 16.9428 15.471C16.6927 15.222 16.3536 15.082 16 15.082C15.6463 15.082 15.3072 15.222 15.0571 15.471C14.8071 15.7201 14.6666 16.0579 14.6666 16.4102C14.6666 16.7624 14.8071 17.1002 15.0571 17.3493C15.3072 17.5983 15.6463 17.7383 16 17.7383Z" fill="#707070"/>
</g>
<defs>
<clipPath id="clip0_1_189">
<rect width="32" height="31.875" fill="white" transform="translate(0 0.472656)"/>
</clipPath>
</defs>
</svg>
