<svg width="30" height="31" viewBox="0 0 30 31" fill="none" xmlns="http://www.w3.org/2000/svg">
<g id="Frame" clip-path="url(#clip0_1_194)">
<path id="Vector" d="M5 22.666H7.5V25.1562H22.5V5.23438H7.5V7.72461H5V3.98926C5 3.65903 5.1317 3.34233 5.36612 3.10883C5.60054 2.87532 5.91848 2.74414 6.25 2.74414H23.75C24.0815 2.74414 24.3995 2.87532 24.6339 3.10883C24.8683 3.34233 25 3.65903 25 3.98926V26.4014C25 26.7316 24.8683 27.0483 24.6339 27.2818C24.3995 27.5153 24.0815 27.6465 23.75 27.6465H6.25C5.91848 27.6465 5.60054 27.5153 5.36612 27.2818C5.1317 27.0483 5 26.7316 5 26.4014V22.666ZM7.5 13.9502H16.25V16.4404H7.5V20.1758L1.25 15.1953L7.5 10.2148V13.9502Z" fill="#707070"/>
</g>
<defs>
<clipPath id="clip0_1_194">
<rect width="30" height="29.8828" fill="white" transform="translate(0 0.253906)"/>
</clipPath>
</defs>
</svg>
